<svg xmlns="http://www.w3.org/2000/svg" width="21.053" height="27.564" viewBox="0 0 21.053 27.564"><path d="M6.854,25.077H14.2a3.955,3.955,0,0,1-7.345,0ZM.8,23.459a.8.8,0,0,1-.781-.631.792.792,0,0,1,.416-.893,4.259,4.259,0,0,0,1.256-1.773A21.161,21.161,0,0,0,3,12.06a7.68,7.68,0,0,1,7.526-7.809,7.678,7.678,0,0,1,7.526,7.778c0,.01,0,.021,0,.031a21.161,21.161,0,0,0,1.31,8.1,4.259,4.259,0,0,0,1.256,1.773.808.808,0,0,1-.365,1.524ZM10.526,2.634a8.75,8.75,0,0,0-3.082.558V3.071A3.02,3.02,0,0,1,10.4,0h.246a3.02,3.02,0,0,1,2.959,3.071v.123A8.735,8.735,0,0,0,10.526,2.634Z" transform="translate(0)" fill="#b7b7b7"/></svg>