<svg xmlns="http://www.w3.org/2000/svg" xmlns:xlink="http://www.w3.org/1999/xlink" width="153" height="152" viewBox="0 0 153 152"><defs><clipPath id="a"><rect width="153" height="152" rx="3" transform="translate(-0.365 0.419)" fill="#f3f3f3"/></clipPath></defs><g transform="translate(0.365 -0.419)" clip-path="url(#a)"><g transform="translate(0 0.254)"><path d="M76.277,152.292q-37.625,0-75.251.023c-.871,0-1.041-.17-1.04-1.04q.04-75.124,0-150.249c0-.87.17-1.041,1.04-1.04q75.378.04,150.757,0c.87,0,1.041.17,1.04,1.04q-.04,75.124,0,150.249c0,.87-.17,1.041-1.04,1.04Q114.03,152.271,76.277,152.292Zm1.4-40.181a88.08,88.08,0,0,1,12.952.978c2.466.368,4.917.829,7.38,1.217,2.2.347,3.3-.565,3.464-2.745a5.541,5.541,0,0,0-.977-3.72,36.04,36.04,0,0,0-12.277-11.2c-6.082-3.325-12.6-3.322-19.112-1.513-7.139,1.982-13.032,5.779-16.743,12.436a7.386,7.386,0,0,0-1.093,3.341c-.093,2.633,1.312,3.845,3.9,3.343A114.791,114.791,0,0,1,77.677,112.111ZM44.426,62.068c-.8,0-1.607.012-2.41,0-.845-.015-1.689-.086-2.534-.077-2.259.021-3.052.995-2.655,3.214a10.03,10.03,0,0,0,1.661,4.073,7.94,7.94,0,0,0,5.945,3.676c3.981.322,8.636-4.1,8.722-8.126A2.219,2.219,0,0,0,51.6,62.489a6.151,6.151,0,0,0-2.229-.421Q46.9,62.063,44.426,62.068Zm63.918,10.909a8.078,8.078,0,0,0,1.074-.185c3.274-.9,5.14-3.275,6.355-6.253,1.076-2.641.226-4.227-2.6-4.384-3.757-.208-7.531-.149-11.3-.114a1.882,1.882,0,0,0-2.057,2.1A8.831,8.831,0,0,0,108.344,72.977Z" transform="translate(0.014 0.014)" fill="#ff8484" fill-rule="evenodd"/><path d="M35.119,34.155A114.669,114.669,0,0,0,12.611,36.3c-2.585.5-3.991-.71-3.9-3.343a7.373,7.373,0,0,1,1.093-3.341c3.712-6.657,9.6-10.453,16.743-12.436,6.514-1.809,13.03-1.812,19.112,1.513a36.07,36.07,0,0,1,12.277,11.2,5.542,5.542,0,0,1,.977,3.72c-.164,2.18-1.266,3.093-3.464,2.745-2.463-.388-4.914-.85-7.38-1.217A88.142,88.142,0,0,0,35.119,34.155Z" transform="translate(42.572 77.971)" fill="#4d4645" fill-rule="evenodd"/><path d="M13.934,10.613q2.473,0,4.945,0a6.173,6.173,0,0,1,2.229.421,2.216,2.216,0,0,1,1.555,2.336c-.086,4.029-4.741,8.448-8.722,8.126A7.937,7.937,0,0,1,8,17.821a10.051,10.051,0,0,1-1.661-4.073c-.4-2.218.4-3.193,2.655-3.214.844-.008,1.688.062,2.534.077C12.327,10.625,13.13,10.614,13.934,10.613Z" transform="translate(30.506 51.469)" fill="#4d4645" fill-rule="evenodd"/><path d="M25.5,21.508a8.832,8.832,0,0,1-8.526-8.839,1.882,1.882,0,0,1,2.057-2.1c3.767-.034,7.541-.093,11.3.114,2.826.157,3.676,1.743,2.6,4.384-1.214,2.978-3.082,5.349-6.355,6.253A8.122,8.122,0,0,1,25.5,21.508Z" transform="translate(82.862 51.484)" fill="#4d4645" fill-rule="evenodd"/></g></g></svg>