<svg xmlns="http://www.w3.org/2000/svg" xmlns:xlink="http://www.w3.org/1999/xlink" width="143" height="142" viewBox="0 0 143 142"><defs><filter id="a" x="0" y="0" width="143" height="142" filterUnits="userSpaceOnUse"><feOffset dy="3" input="SourceAlpha"/><feGaussianBlur stdDeviation="3" result="b"/><feFlood flood-opacity="0.161"/><feComposite operator="in" in2="b"/><feComposite in="SourceGraphic"/></filter></defs><g transform="translate(8.52 5.917)"><g transform="matrix(1, 0, 0, 1, -8.52, -5.92)" filter="url(#a)"><g transform="translate(9 6)" fill="#ff7d7d" stroke="#fff" stroke-linejoin="round" stroke-width="7"><rect width="125" height="124" stroke="none"/><rect x="3.5" y="3.5" width="118" height="117" fill="none"/></g></g><path d="M11.026,23c-1.534.174-2.369-.246-2.313-1.157a1.95,1.95,0,0,1,.649-1.156c2.2-2.3,5.7-3.617,9.939-4.3a24.4,24.4,0,0,1,11.345.524,21.377,21.377,0,0,1,7.288,3.874,1.383,1.383,0,0,1,.58,1.287c-.1.754-.751,1.07-2.056.95-1.462-.134-2.868-.823-4.332-.95-2.085-.182-10.627-.13-16.675.118A39.047,39.047,0,0,0,11.026,23Z" transform="translate(40.638 65.07)" fill="#4d4645" fill-rule="evenodd"/><g transform="translate(19.511 55.058)"><path d="M20.647,62.041A77.271,77.271,0,0,0,47.167,69.1" transform="translate(-20.647 -62.041)" fill="#4d4645" stroke="#4d4645" stroke-linecap="round" stroke-width="7"/><ellipse cx="6.5" cy="6" rx="6.5" ry="6" transform="translate(8.968 4.025)" fill="#4d4645"/></g><g transform="translate(79.887 55.058)"><path d="M47.167,62.041A77.271,77.271,0,0,1,20.647,69.1" transform="translate(-20.647 -62.041)" fill="#4d4645" stroke="#4d4645" stroke-linecap="round" stroke-width="7"/><ellipse cx="6.31" cy="6.31" rx="6.31" ry="6.31" transform="translate(5.681 3.907)" fill="#4d4645"/></g></g></svg>