<svg xmlns="http://www.w3.org/2000/svg" xmlns:xlink="http://www.w3.org/1999/xlink" width="153" height="152" viewBox="0 0 153 152"><defs><clipPath id="a"><rect width="153" height="152" rx="3" transform="translate(-0.473 0.419)" fill="#f3f3f3"/></clipPath></defs><g transform="translate(0.473 -0.419)" clip-path="url(#a)"><g transform="translate(0.147 0)"><path d="M.071,152.5Q.071,76.826.048,1.151C.048.2.263-.017,1.215-.016q75.1.04,150.208,0c.952,0,1.168.215,1.168,1.167q-.04,75.675-.023,151.352ZM74.2,101.68a28.726,28.726,0,0,0-12.434,3.59,11.2,11.2,0,0,0-5.025,5.706A3.39,3.39,0,0,0,58,115.032a3.107,3.107,0,0,0,3.987.084c.636-.418,1.227-.9,1.856-1.332,6.2-4.223,12.729-5.21,19.667-1.922a39.013,39.013,0,0,1,5.177,3.2,3.411,3.411,0,0,0,4.342-.184,3.316,3.316,0,0,0,.9-4.335,10.334,10.334,0,0,0-4-4.632A29.441,29.441,0,0,0,74.2,101.68Zm41.232-38.287a8.122,8.122,0,0,0-11.63-7.983c-3.273,1.4-5.044,4.59-4.833,8.711a8.52,8.52,0,0,0,5.866,7.809C110.429,73.6,115.436,69.57,115.431,63.394ZM51.666,63.38c.214-6.955-5.675-9.847-10.874-8.19-3.723,1.186-5.243,4.04-5.531,7.809a8.428,8.428,0,0,0,10.655,8.939C49.5,70.968,51.666,67.742,51.666,63.38Z" transform="translate(-0.048 0.016)" fill="#ffb546" fill-rule="evenodd"/><path d="M.052,25.929H152.546c-.056.078.128.265-.127.256-.339-.011-.678,0-1.017,0q-75.1,0-150.208-.016C.823,26.168.333,26.461.052,25.929Z" transform="translate(-0.028 126.59)" fill="#fff" fill-rule="evenodd"/><path d="M27.355,17.284a29.444,29.444,0,0,1,15.727,4.224,10.334,10.334,0,0,1,4,4.632,3.315,3.315,0,0,1-.9,4.335,3.411,3.411,0,0,1-4.342.184,39.056,39.056,0,0,0-5.177-3.2c-6.937-3.287-13.463-2.3-19.667,1.922-.63.429-1.22.914-1.856,1.332a3.108,3.108,0,0,1-3.987-.084A3.393,3.393,0,0,1,9.9,26.579a11.2,11.2,0,0,1,5.025-5.706A28.747,28.747,0,0,1,27.355,17.284Z" transform="translate(46.797 84.413)" fill="#524b42" fill-rule="evenodd"/><path d="M33.353,17.985c0,6.176-5,10.208-10.6,8.537a8.519,8.519,0,0,1-5.866-7.809C16.68,14.592,18.45,11.4,21.723,10a8.547,8.547,0,0,1,9.49,1.789A8.621,8.621,0,0,1,33.353,17.985Z" transform="translate(82.03 45.425)" fill="#524b42" fill-rule="evenodd"/><path d="M22.466,17.943c0,4.362-2.167,7.588-5.75,8.558A8.428,8.428,0,0,1,6.061,17.562c.288-3.77,1.808-6.623,5.531-7.809C16.791,8.1,22.678,10.988,22.466,17.943Z" transform="translate(29.153 45.453)" fill="#524b42" fill-rule="evenodd"/></g></g></svg>