<svg xmlns="http://www.w3.org/2000/svg" xmlns:xlink="http://www.w3.org/1999/xlink" width="152" height="152" viewBox="0 0 152 152"><defs><clipPath id="a"><rect width="152" height="152" rx="3" transform="translate(0.419 0.419)" fill="#f3f3f3"/></clipPath><clipPath id="b"><rect width="152" height="152" transform="translate(0.419 0.419)" fill="#f3f3f3"/></clipPath></defs><g transform="translate(-0.419 -0.419)" clip-path="url(#a)"><g transform="translate(0)" clip-path="url(#b)"><path d="M1,152.376c-.87,0-1.04-.17-1.04-1.04Q0,76.21-.038,1.09C-.038.22.132.05,1,.05q75.378.041,150.751,0c.87,0,1.04.17,1.04,1.04q-.041,75.12,0,150.245c0,.87-.17,1.04-1.04,1.04C126.57,152.347,26.085,152.347,1,152.376ZM41.963,72.7a8.642,8.642,0,1,0-8.5-8.779A8.642,8.642,0,0,0,41.963,72.7Zm59.119-8.635a8.283,8.283,0,0,0,8.524,8.635,8.506,8.506,0,0,0,8.535-8.718A8.406,8.406,0,0,0,109.6,55.43a8.23,8.23,0,0,0-8.518,8.635Z" transform="translate(0.038 0.209)" fill="#fff23b" fill-rule="evenodd"/><path d="M14.165,26.752a8.642,8.642,0,1,1,8.779-8.5A8.642,8.642,0,0,1,14.165,26.752Z" transform="translate(27.836 46.157)" fill="#4b4a41" fill-rule="evenodd"/><path d="M17.173,18.111A8.23,8.23,0,0,1,25.69,9.475a8.406,8.406,0,0,1,8.541,8.553A8.506,8.506,0,0,1,25.7,26.746a8.277,8.277,0,0,1-8.524-8.635Z" transform="translate(83.947 46.163)" fill="#4b4a41" fill-rule="evenodd"/><path d="M1073.89,287.948c6.845,6.243,14.686,8.494,25.225,8.494" transform="translate(-1024.053 -188.321)" fill="none" stroke="#4b4a41" stroke-linecap="round" stroke-width="6"/><path d="M1100.411,287.948c-7.325,6.309-16.422,8.494-26.523,8.494" transform="translate(-998.279 -188.321)" fill="none" stroke="#4b4a41" stroke-linecap="round" stroke-width="6"/></g></g></svg>