<svg xmlns="http://www.w3.org/2000/svg" xmlns:xlink="http://www.w3.org/1999/xlink" width="144.889" height="144.889" viewBox="0 0 144.889 144.889"><defs><filter id="a" x="0" y="0" width="144.889" height="144.889" filterUnits="userSpaceOnUse"><feOffset dy="3" input="SourceAlpha"/><feGaussianBlur stdDeviation="3" result="b"/><feFlood flood-opacity="0.161"/><feComposite operator="in" in2="b"/><feComposite in="SourceGraphic"/></filter></defs><g transform="translate(12.5 9.5)"><g transform="matrix(1, 0, 0, 1, -12.5, -9.5)" filter="url(#a)"><path d="M0,0H119.889V119.889H0Z" transform="translate(12.5 9.5)" fill="#fff23b" stroke="#fff" stroke-linejoin="round" stroke-width="7"/></g><path d="M17.171,16.607a6.8,6.8,0,0,1,7.035-7.133,6.943,6.943,0,0,1,7.055,7.065,7.026,7.026,0,0,1-7.05,7.2,6.836,6.836,0,0,1-7.04-7.133Z" transform="translate(61.032 35.791)" fill="#4b4a41" fill-rule="evenodd"/><path d="M3462.72,3772a43.009,43.009,0,0,0,27.824,0" transform="translate(-3416.101 -3695.565)" fill="none" stroke="#524b42" stroke-linecap="round" stroke-width="7"/><path d="M12.684,23.745a7.139,7.139,0,1,1,7.251-7.024A7.138,7.138,0,0,1,12.684,23.745Z" transform="translate(20.807 35.786)" fill="#4b4a41" fill-rule="evenodd"/></g></svg>