<svg xmlns="http://www.w3.org/2000/svg" xmlns:xlink="http://www.w3.org/1999/xlink" width="145.543" height="145.543" viewBox="0 0 145.543 145.543"><defs><filter id="a" x="0" y="0" width="145.543" height="145.543" filterUnits="userSpaceOnUse"><feOffset dy="3" input="SourceAlpha"/><feGaussianBlur stdDeviation="3" result="b"/><feFlood flood-opacity="0.161"/><feComposite operator="in" in2="b"/><feComposite in="SourceGraphic"/></filter></defs><g transform="translate(12.5 9.5)"><g transform="matrix(1, 0, 0, 1, -12.5, -9.5)" filter="url(#a)"><rect width="120.543" height="120.543" transform="translate(12.5 9.5)" stroke-width="7" stroke="#fff" stroke-linecap="round" stroke-linejoin="round" fill="#a8ff84"/></g><path d="M21.015,16.641c0,1.941-.621,2.379-2.364,1.563a12.715,12.715,0,0,0-10.979-.082,7.145,7.145,0,0,1-.936.332,1.053,1.053,0,0,1-1.5-.96,6.7,6.7,0,0,1,1.7-5.63,8.008,8.008,0,0,1,8.865-2.323A7.726,7.726,0,0,1,21.015,16.641Z" transform="translate(17.836 35.697)" fill="#474d4c" fill-rule="evenodd"/><path d="M17.349,16.646a7.942,7.942,0,0,1,15.759-1.031,6.3,6.3,0,0,1,.057,1c.018,1.988-.6,2.444-2.419,1.592a12.421,12.421,0,0,0-11.146.052,4.551,4.551,0,0,1-.655.236c-1.125.335-1.548.031-1.6-1.146C17.34,17.113,17.348,16.879,17.349,16.646Z" transform="translate(62.213 35.652)" fill="#474d4c" fill-rule="evenodd"/><path d="M26,11.838A56.524,56.524,0,0,1,7.615,9.107C2.7,7.346,0,5,0,2.513A4.077,4.077,0,0,1,.955,0,160.108,160.108,0,0,0,26,1.662,160.111,160.111,0,0,0,51.045,0,4.077,4.077,0,0,1,52,2.513C52,5,49.3,7.346,44.385,9.107A56.524,56.524,0,0,1,26,11.838Z" transform="translate(34.122 68.473)" fill="#4b4a41"/></g></svg>