<svg xmlns="http://www.w3.org/2000/svg" xmlns:xlink="http://www.w3.org/1999/xlink" width="153" height="152" viewBox="0 0 153 152"><defs><clipPath id="a"><rect width="153" height="152" rx="3" transform="translate(0.311 0.419)" fill="#f3f3f3"/></clipPath></defs><g transform="translate(-0.311 -0.419)" clip-path="url(#a)"><g transform="translate(0.448 0)"><path d="M.063,152.358Q.063,76.683.039,1C.039.053.253-.162,1.2-.161q74.807.04,149.614,0c.948,0,1.163.214,1.163,1.166q-.04,75.676-.023,151.354Zm76.97-38.917a76.444,76.444,0,0,0,9.815-1.177,40.588,40.588,0,0,0,23.107-12.609c1.71-1.867,1.836-3.452.41-5.181-1.478-1.793-2.884-1.951-5.115-.564-.393.244-.769.519-1.149.784a84.512,84.512,0,0,1-11.645,7.1c-6.08,2.948-12.426,4.432-19.215,3.549A48.534,48.534,0,0,1,48.065,94.171a9.8,9.8,0,0,0-2.19-1.488,3.28,3.28,0,0,0-4.044.7c-1.687,1.646-1.767,3.465-.154,5.392a34.309,34.309,0,0,0,5.468,5.069C55.855,110.551,65.948,113.011,77.034,113.441ZM50.159,63.615a9.793,9.793,0,0,0-6.6-9,10.151,10.151,0,0,0-11.24,2.945,8.487,8.487,0,0,0-2.16,7.138,1.335,1.335,0,0,0,1.9,1.217,9.061,9.061,0,0,0,1.187-.421,16.12,16.12,0,0,1,13.919.1C49.373,66.631,50.163,66.076,50.159,63.615Zm51.613-.051c0,.3-.011.592,0,.887.06,1.492.6,1.878,2.023,1.452a5.725,5.725,0,0,0,.83-.3,15.748,15.748,0,0,1,14.131-.066c2.311,1.082,3.092.5,3.067-2.018a7.985,7.985,0,0,0-.073-1.263,10.07,10.07,0,0,0-19.981,1.307Z" transform="translate(-0.039 0.161)" fill="#a8ff84" fill-rule="evenodd"/><path d="M.043,25.785H151.936c-.056.079.128.266-.127.255-.336-.011-.676,0-1.013,0q-74.807,0-149.614-.016C.811,26.022.324,26.317.043,25.785Z" transform="translate(-0.019 126.734)" fill="#fff" fill-rule="evenodd"/><path d="M43.444,36.726c-11.086-.43-21.178-2.89-29.89-9.6a34.256,34.256,0,0,1-5.468-5.069c-1.613-1.927-1.532-3.748.154-5.392a3.281,3.281,0,0,1,4.044-.7,9.881,9.881,0,0,1,2.19,1.488A48.534,48.534,0,0,0,39.651,28.629c6.79.883,13.137-.6,19.215-3.549a84.555,84.555,0,0,0,11.645-7.1c.379-.265.755-.54,1.149-.784,2.23-1.386,3.636-1.229,5.115.564,1.427,1.729,1.3,3.315-.41,5.181A40.588,40.588,0,0,1,53.258,35.549,76.409,76.409,0,0,1,43.444,36.726Z" transform="translate(33.55 76.876)" fill="#474d4c" fill-rule="evenodd"/><path d="M25.267,18.674c0,2.461-.787,3.016-3,1.982a16.12,16.12,0,0,0-13.919-.1,9.06,9.06,0,0,1-1.187.421,1.335,1.335,0,0,1-1.9-1.217,8.488,8.488,0,0,1,2.16-7.138,10.153,10.153,0,0,1,11.24-2.945A9.8,9.8,0,0,1,25.267,18.674Z" transform="translate(24.853 45.102)" fill="#474d4c" fill-rule="evenodd"/><path d="M17.35,18.684a10.069,10.069,0,0,1,19.98-1.307A7.992,7.992,0,0,1,37.4,18.64c.023,2.521-.756,3.1-3.067,2.018a15.748,15.748,0,0,0-14.131.066,5.77,5.77,0,0,1-.83.3c-1.426.425-1.963.039-2.023-1.452C17.338,19.276,17.349,18.979,17.35,18.684Z" transform="translate(84.384 45.041)" fill="#474d4c" fill-rule="evenodd"/></g></g></svg>