<svg xmlns="http://www.w3.org/2000/svg" xmlns:xlink="http://www.w3.org/1999/xlink" width="145.549" height="145.549" viewBox="0 0 145.549 145.549"><defs><filter id="a" x="0" y="0" width="145.549" height="145.549" filterUnits="userSpaceOnUse"><feOffset dy="3" input="SourceAlpha"/><feGaussianBlur stdDeviation="3" result="b"/><feFlood flood-opacity="0.161"/><feComposite operator="in" in2="b"/><feComposite in="SourceGraphic"/></filter></defs><g transform="translate(12.5 9.5)"><g transform="matrix(1, 0, 0, 1, -12.5, -9.5)" filter="url(#a)"><path d="M120.57,60.414q0,29.677.018,59.354c0,.686-.135.821-.82.82q-59.454-.031-118.908,0c-.687,0-.821-.135-.821-.82Q.07,60.314.039.86C.039.174.174.039.86.039q59.454.031,118.908,0c.686,0,.821.135.82.821Q120.555,30.637,120.57,60.414Z" transform="translate(12.46 9.46)" fill="#92ffda" stroke="#fff" stroke-linecap="square" stroke-linejoin="bevel" stroke-width="7" fill-rule="evenodd"/></g><path d="M22.72,49.226a2.947,2.947,0,0,1-1.5-.708A44.659,44.659,0,0,1,8.744,32.291a45.352,45.352,0,0,1-2.4-6.365,10.478,10.478,0,0,1-.378-3.843c.222-2.433,63.731-1.688,65.723,0,.546.837.511.716,0,2.708a45.969,45.969,0,0,1-5.181,12.076A44.5,44.5,0,0,1,59.668,45.7a16.321,16.321,0,0,1-4.752,3.653c-1.464-1.788-6.82-1.789-8.587-2.933-2.765-1.79-7.123-1.334-7.123-1.334S29.623,43.5,24.432,47.668C23.837,48.149,23.471,49.073,22.72,49.226Z" transform="translate(21.364 43.562)" fill="#414141" stroke="#ff6060" stroke-width="0.18" fill-rule="evenodd"/><path d="M41.741,24.817a3.446,3.446,0,0,0-1.313-1.466,28.441,28.441,0,0,0-13.005-4.477,25.469,25.469,0,0,0-14.7,3.268c-.845.467-1.645,1.012-2.461,1.526a1.408,1.408,0,0,0-.714,1.241,18.745,18.745,0,0,0,6.345,2.812,38.1,38.1,0,0,0,16.042.728,41.264,41.264,0,0,0,7.908-2.388A4.063,4.063,0,0,0,41.741,24.817Z" transform="translate(34.537 68.128)" fill="#fa7a7b" stroke="#ff6060" stroke-width="0.18" fill-rule="evenodd"/><path d="M34.185,16.848c-.018.823-.015,1.4-.63,1.72-.635.328-1.075-.065-1.526-.413a7.233,7.233,0,0,0-3.741-1.27c-2.866-.329-5.657-.155-8.142,1.572a.9.9,0,0,1-1.119.094,1.559,1.559,0,0,1-.54-1.533,9.142,9.142,0,0,1,1.586-4.467A7.585,7.585,0,0,1,30.71,10.642,7.85,7.85,0,0,1,34.185,16.848Z" transform="translate(66.976 33.503)" fill="#414141" stroke="#ff6060" stroke-width="0.18" fill-rule="evenodd"/><path d="M4.206,17.318a1.27,1.27,0,0,0,.62,1.181c.444.3.838.064,1.2-.168,3.476-2.2,7.132-1.931,10.844-.786a3.646,3.646,0,0,1,1.267.781.915.915,0,0,0,1.1.22,1.327,1.327,0,0,0,.81-1.182c-.358-3.571-2.135-6.828-6.016-7.835a7.577,7.577,0,0,0-8.969,4.526A10.624,10.624,0,0,0,4.206,17.318Z" transform="translate(15.106 33.562)" fill="#414141" stroke="#ff6060" stroke-width="0.18" fill-rule="evenodd"/></g></svg>