<svg xmlns="http://www.w3.org/2000/svg" xmlns:xlink="http://www.w3.org/1999/xlink" width="153" height="152" viewBox="0 0 153 152"><defs><clipPath id="a"><rect width="153" height="152" rx="3" transform="translate(0.203 0.419)" fill="#f3f3f3"/></clipPath></defs><g transform="translate(-0.203 -0.419)" clip-path="url(#a)"><g transform="translate(0 0)"><path d="M152.854,76.586q0,37.626.023,75.251c0,.87-.171,1.041-1.04,1.04q-75.378-.04-150.756,0c-.871,0-1.041-.171-1.041-1.04Q.079,76.458.039,1.08C.039.21.21.039,1.08.039q75.378.04,150.756,0c.87,0,1.041.171,1.04,1.041Q152.834,38.833,152.854,76.586Z" transform="translate(-0.039 -0.039)" fill="#92ffda" fill-rule="evenodd"/><path d="M27.218,45.994a4.405,4.405,0,0,1-1.9-.665C18.94,41.4,13.444,36.552,9.5,30.089a36.546,36.546,0,0,1-3.042-5.977A7.427,7.427,0,0,1,5.978,20.5c.282-2.285,2-3.269,3.809-4.008a22.714,22.714,0,0,1,11.156-1.436c8.8.912,17.529,2.507,26.446,2.433A108.487,108.487,0,0,0,66.168,15.98a48.63,48.63,0,0,1,13.46-1.07,19.079,19.079,0,0,1,8.284,2.981c1.53.959,2.041,3.285,1.393,5.155a38.4,38.4,0,0,1-6.569,11.342,46.378,46.378,0,0,1-8.673,8.291,21.184,21.184,0,0,1-6.025,3.431A25.646,25.646,0,0,0,61.809,42.1a33.158,33.158,0,0,0-11.082-2.98c-7.756-.788-14.757,1.49-21.338,5.409C28.635,44.983,28.171,45.85,27.218,45.994Z" transform="translate(28.673 71.846)" fill="#414141" fill-rule="evenodd"/><path d="M9.547,26.433a4.369,4.369,0,0,1,1.665-1.859A36.059,36.059,0,0,1,27.7,18.9a32.291,32.291,0,0,1,18.638,4.144c1.071.592,2.086,1.283,3.121,1.935a1.785,1.785,0,0,1,.9,1.573,23.766,23.766,0,0,1-8.044,3.566,48.3,48.3,0,0,1-20.339.923A52.317,52.317,0,0,1,11.955,28.01,5.152,5.152,0,0,1,9.547,26.433Z" transform="translate(46.345 91.408)" fill="#fa7a7b" fill-rule="evenodd"/><path d="M38.4,18.879c-.022,1.043-.019,1.777-.8,2.181-.805.416-1.363-.083-1.934-.523a9.17,9.17,0,0,0-4.743-1.61c-3.633-.417-7.172-.2-10.323,1.994a1.138,1.138,0,0,1-1.418.12,1.977,1.977,0,0,1-.684-1.944A11.59,11.59,0,0,1,20.5,13.434c3.485-4.672,8.939-5.328,13.486-2.423A9.952,9.952,0,0,1,38.4,18.879Z" transform="translate(89.861 44.958)" fill="#414141" fill-rule="evenodd"/><path d="M24.3,19.47a1.611,1.611,0,0,1-.786,1.5c-.564.38-1.062.082-1.526-.213-4.407-2.793-9.042-2.448-13.748-1a4.622,4.622,0,0,0-1.607.99,1.16,1.16,0,0,1-1.4.279,1.683,1.683,0,0,1-1.027-1.5C4.664,15,6.916,10.872,11.836,9.6a9.606,9.606,0,0,1,11.371,5.738A13.47,13.47,0,0,1,24.3,19.47Z" transform="translate(20.278 45.037)" fill="#414141" fill-rule="evenodd"/></g></g></svg>