<svg xmlns="http://www.w3.org/2000/svg" width="25.459" height="16.014" viewBox="0 0 25.459 16.014">
  <path id="icon-logs" d="M.911,35.432H24.542c.5,0,.909-.256.909-.572V32.572c0-.316-.407-.572-.909-.572H.911c-.5,0-.909.256-.909.572V34.86C0,35.176.408,35.432.911,35.432Zm23.622,2.86H.9c-.5,0-.909.256-.909.572v2.288c0,.316.407.572.909.572H24.532c.5,0,.909-.256.909-.572V38.863C25.441,38.547,25.034,38.291,24.532,38.291Zm.01,6.291H.911c-.5,0-.909.256-.909.572v2.288c0,.316.407.572.909.572H24.542c.5,0,.909-.256.909-.572V45.155C25.451,44.839,25.044,44.583,24.542,44.583Z" transform="translate(0.008 -32)" fill="#94b3eb"/>
</svg>
